
<svg xmlns="http://www.w3.org/2000/svg" width="192" height="192" viewBox="0 0 24 24" fill="#FF5722" stroke="#FF5722" stroke-width="0" stroke-linecap="round" stroke-linejoin="round">
  <path d="M21 5H3a1 1 0 0 0-1 1v1a3 3 0 0 0 3 3h14a3 3 0 0 0 3-3V6a1 1 0 0 0-1-1Z" stroke-width="0"></path>
  <path d="M18 14H6a3 3 0 0 1-3-3v-1h18v1a3 3 0 0 1-3 3Z" stroke-width="0"></path>
  <path d="M19 11v2a3 3 0 0 1-3 3H8a3 3 0 0 1-3-3v-2" stroke-width="0"></path>
  <path d="M21 17H3a1 1 0 0 0-1 1v1a3 3 0 0 0 3 3h14a3 3 0 0 0 3-3v-1a1 1 0 0 0-1-1Z" stroke-width="0"></path>
</svg>
